<svg width="313" height="222" viewBox="0 0 313 222" fill="none" xmlns="http://www.w3.org/2000/svg">
<path d="M149.242 220H125.074C123.212 220 121.958 219.867 121.312 219.601C120.666 219.335 120.343 218.917 120.343 218.347V182.266C120.343 181.278 120.78 180.575 121.654 180.157C122.566 179.739 124.181 179.53 126.499 179.53H149.413C150.211 179.53 150.61 180.86 150.61 183.52C150.61 186.142 150.439 188.156 150.097 189.562C149.755 190.93 149.299 191.614 148.729 191.614C146.259 191.614 142.098 191.367 136.246 190.873V194.692C141.87 194.464 145.537 194.35 147.247 194.35C148.273 194.35 148.786 195.547 148.786 197.941C148.786 200.335 148.577 202.159 148.159 203.413C147.779 204.629 147.247 205.237 146.563 205.237L136.246 205.009V208.657C142.858 208.163 147.418 207.916 149.926 207.916C150.724 207.916 151.123 209.246 151.123 211.906C151.123 214.566 150.952 216.58 150.61 217.948C150.268 219.316 149.812 220 149.242 220ZM281.193 218.347C281.193 218.841 280.015 219.24 277.659 219.544C275.341 219.848 273.023 220 270.705 220C268.387 220 266.905 219.867 266.259 219.601C265.613 219.335 265.29 218.917 265.29 218.347V183.349C265.29 182.399 266.373 181.525 268.539 180.727C270.743 179.929 273.232 179.53 276.006 179.53C276.994 179.53 277.735 179.568 278.229 179.644C279.521 179.834 280.433 180.651 280.965 182.095L286.437 196.801H286.665V183.349C286.665 182.399 287.748 181.525 289.914 180.727C292.08 179.929 294.55 179.53 297.324 179.53C299.718 179.53 301.238 179.986 301.884 180.898C302.34 181.544 302.568 182.133 302.568 182.665V218.347C302.568 218.841 301.39 219.24 299.034 219.544C296.716 219.848 294.151 220 291.339 220C288.565 220 287.045 219.639 286.779 218.917L281.478 204.895H281.193V218.347Z" fill="#00DBDE"/>
<path d="M194.406 217.606C193.266 218.442 191.67 219.145 189.618 219.715C187.604 220.247 184.982 220.513 181.752 220.513C178.56 220.513 175.52 220.247 172.632 219.715C169.744 219.183 167.673 218.594 166.419 217.948C165.165 217.302 164.538 216.675 164.538 216.067C164.538 213.939 164.842 211.735 165.45 209.455C166.058 207.137 166.78 205.978 167.616 205.978C167.768 205.978 169.345 206.491 172.347 207.517C175.349 208.543 177.61 209.056 179.13 209.056C180.65 209.056 181.638 208.904 182.094 208.6C182.55 208.258 182.778 207.783 182.778 207.175C182.778 206.567 182.36 206.035 181.524 205.579C180.688 205.085 179.643 204.667 178.389 204.325C177.135 203.945 175.767 203.413 174.285 202.729C172.841 202.045 171.492 201.285 170.238 200.449C168.984 199.613 167.939 198.435 167.103 196.915C166.267 195.357 165.849 193.59 165.849 191.614C165.849 183.178 170.884 178.96 180.954 178.96C184.716 178.96 187.965 179.207 190.701 179.701C193.437 180.157 195.356 180.689 196.458 181.297C197.598 181.867 198.168 182.437 198.168 183.007C198.168 184.983 197.693 187.111 196.743 189.391C195.831 191.671 194.938 192.811 194.064 192.811C193.912 192.811 193.418 192.64 192.582 192.298C190.074 191.196 187.984 190.645 186.312 190.645C184.678 190.645 183.557 190.797 182.949 191.101C182.379 191.405 182.094 191.88 182.094 192.526C182.094 193.134 182.512 193.647 183.348 194.065C184.184 194.445 185.21 194.806 186.426 195.148C187.68 195.452 189.029 195.946 190.473 196.63C191.955 197.276 193.323 198.055 194.577 198.967C195.831 199.841 196.876 201.095 197.712 202.729C198.548 204.363 198.966 206.263 198.966 208.429C198.966 210.709 198.377 212.78 197.199 214.642C196.477 215.782 195.546 216.77 194.406 217.606Z" fill="#E500E5"/>
<path d="M228.68 217.093C228.604 218.195 228.015 218.955 226.913 219.373C225.849 219.791 223.911 220 221.099 220C218.287 220 215.931 219.753 214.031 219.259C212.169 218.727 211.238 218.062 211.238 217.264C211.238 216.352 212.929 210.538 216.311 199.822C219.693 189.068 221.631 182.874 222.125 181.24C222.315 180.746 223.835 180.347 226.685 180.043C229.573 179.701 232.651 179.53 235.919 179.53C239.225 179.53 241.049 180.1 241.391 181.24C248.573 205.104 252.164 217.226 252.164 217.606C252.164 217.986 251.936 218.366 251.48 218.746C250.416 219.582 248.307 220 245.153 220C238.427 220 234.988 219.202 234.836 217.606L234.437 213.901H228.965L228.68 217.093ZM233.24 203.071L232.385 192.811H231.131L230.162 203.071H233.24Z" fill="#2480A7"/>
<g style="mix-blend-mode:color-burn">
<path d="M104.254 204C99.9311 198.832 116.98 133.113 115.253 131.575C110.784 127.595 107.386 124.213 104.254 121.02C97.7244 121.639 91.3263 122.265 85.0717 122.878L85.0397 122.881C61.9608 125.142 39.4987 127.658 20.4934 130.693C13.6621 131.783 -3.5303 135.403 0.645384 134.053C18.4862 128.287 41.7283 123.054 71.3234 118.464C79.933 117.129 88.839 115.811 97.8282 114.491C93.9821 110.677 89.6984 106.723 83.5136 101.888C61.5493 105.022 40.1347 108.256 17.9659 111.291C-7.44622 114.77 34.3765 108.776 37.4644 108.242C54.7844 105.247 138.081 5.45009 150.5 2C133.754 -12.2358 44.8573 62.7763 36.5479 49.6061C81.4962 49.7704 178.741 43.9555 203.649 49.6061C219.596 53.2238 233.436 24.3956 220.113 28.5987C194.369 36.7203 118.53 93.9667 89.9943 101.888C89.4867 102.029 151.006 1.85939 150.5 2C151.916 3.2037 82.1174 100.796 83.5136 101.888C120.039 96.6764 139.395 180.774 184.958 177.499C223.676 174.716 211.109 47.9667 203.649 49.6061C179.425 54.9299 128.788 109.947 97.8282 114.491C100.022 116.667 102.074 118.798 104.254 121.02C132.914 118.307 164.112 115.754 196.854 115.26C207.045 115.106 252.361 113.601 251.998 116.293C251.794 117.804 244.037 119.245 238.001 120.367L237.786 120.407C214.66 124.705 102.67 160.284 80.8126 164.747C65.8944 167.794 119.737 201.107 104.254 204Z" fill="#FC00FF"/>
</g>
</svg>
